<?xml version="1.0" encoding="utf-8"?>
<!-- Generator: Adobe Illustrator 26.0.1, SVG Export Plug-In . SVG Version: 6.00 Build 0)  -->
<svg version="1.1" id="Layer_1" xmlns="http://www.w3.org/2000/svg" xmlns:xlink="http://www.w3.org/1999/xlink" x="0px" y="0px"
	 viewBox="0 0 400 400" style="enable-background:new 0 0 400 400;" xml:space="preserve">
<style type="text/css">
	.st0{fill:#FFFFFF;stroke:#E0E0E0;stroke-miterlimit:10;}
	.st1{fill:none;stroke:#E0E0E0;stroke-miterlimit:10;}
	.st2{fill:#F9B200;}
	.st3{fill:#FFFFFF;}
	.st4{fill:none;stroke:#333333;stroke-width:3;stroke-miterlimit:10;}
</style>
<path class="st0" d="M400,348.1c-31-0.1-62-0.1-92.9-0.1h-11.8c-5.1,0-10.2,0-15.3,0l0,0c-52.3,0-104.7,0.1-157,0H64.4
	c-4.1-20.5-8.2-41.1-12.3-61.7c-0.2-0.9-0.4-1.8-0.6-2.7c-3.1-15.5-6.2-31-9.3-46.5c-2.5-12.2-4.9-24.5-7.3-36.7
	C24,146.5,13.2,92.4,2.4,38.4c-0.1-0.3-0.9-2.4,0.2-4.6c1-2,3-2.6,3.3-2.8h78.6c3.4,0.2,9.5,1,16.1,4.2c0.6,0.3,1.2,0.6,1.9,1
	c8,4.4,12.6,10.5,14.1,12.6c3.4,4.5,12.5,16.6,26.2,34.6c3.8,5,8,10.5,12.5,16.5c4.9,6.5,10.2,13.5,15.9,21
	c21.2,28.1,47.5,62.9,77.2,102.3c21.5,28.1,54.5,62.2,102.3,87.6c10.1,5.4,20.1,9.9,29.7,13.8c2.6,0.9,10,3.7,15.2,11.4
	c1.6,2.4,2.7,4.8,3.4,6.8C399.5,344.9,399.8,346.7,400,348.1z"/>
<path class="st1" d="M400,348.1c-31-0.1-62-0.1-92.9-0.1h-11.8c-5.1,0-10.2,0-15.3,0l0,0c-52.3,0-104.7,0.1-157,0H64.4
	c-4.1-20.5-8.2-41.1-12.3-61.7c-0.2-0.9-0.4-1.8-0.6-2.7c-3.1-15.5-6.2-31-9.3-46.5c-2.5-12.2-4.9-24.5-7.3-36.7
	C24,146.5,13.2,92.4,2.4,38.4c-0.1-0.3-0.9-2.4,0.2-4.6c1-2,3-2.6,3.3-2.8h78.6c3.4,0.2,9.5,1,16.1,4.2c0.6,0.3,1.2,0.6,1.9,1
	c8,4.4,12.6,10.5,14.1,12.6c3.4,4.5,12.5,16.6,26.2,34.6c3.8,5,8,10.5,12.5,16.5c4.9,6.5,10.2,13.5,15.9,21
	c21.2,28.1,47.5,62.9,77.2,102.3c21.5,28.1,54.5,62.2,102.3,87.6c10.1,5.4,20.1,9.9,29.7,13.8c2.6,0.9,10,3.7,15.2,11.4
	c1.6,2.4,2.7,4.8,3.4,6.8C399.5,344.9,399.8,346.7,400,348.1z"/>
<g>
	<path class="st2" d="M398.7,346.9c-92.1-0.2-184,0.1-276.1,0H64.3c-4.1-20.4-8.2-40.9-12.3-61.5l0,0l-0.6-2.7l0,0l-9.3-46.4
		c-2.5-12.2-4.9-24.4-7.3-36.6C24.1,146,13.3,92.2,2.5,38.4c-0.6-1.5-0.5-3.1,0.2-4.6C3.5,32.5,4.6,31.5,6,31h78.3
		c6.3,0.4,12.4,2.1,17.9,5.2c5.5,3.1,10.3,7.4,14,12.5c3.4,4.5,12.5,16.5,26.1,34.5c3.8,5,8,10.5,12.5,16.4
		c4.9,6.5,10.2,13.4,15.8,20.9c21.1,28,47.3,62.7,76.9,101.9c21.4,28,54.3,62,101.9,87.3c9.6,5.1,19.5,9.7,29.6,13.8
		c6.1,2,11.5,6,15.1,11.4c1.4,2.1,2.5,4.4,3.4,6.8C398.2,343.7,398.5,345.5,398.7,346.9z"/>
	<path class="st3" d="M75.7,184.2h41l19.2-52.3l20.9,51.4h43.6l-35.7,25.3c0,0,20.9,53.2,20.9,54.1L75.7,184.2z"/>
	<polygon class="st3" points="189.9,273.1 161.1,253.1 128,253.1 135,234.8 104.5,212.1 73.9,290.6 114.1,290.6 121.9,268.8 
		166.4,268.8 174.2,290.6 196,290.6 	"/>
	<path class="st4" d="M398.7,346.9c-92.1-0.2-184,0.1-276.1,0H64.3c-4.1-20.4-8.2-40.9-12.3-61.5l0,0l-0.6-2.7l0,0l-9.3-46.4
		c-2.5-12.2-4.9-24.4-7.3-36.6C24.1,146,13.3,92.2,2.5,38.4c-0.6-1.5-0.5-3.1,0.2-4.6C3.5,32.5,4.6,31.5,6,31h78.3
		c6.3,0.4,12.4,2.1,17.9,5.2c5.5,3.1,10.3,7.4,14,12.5c3.4,4.5,12.5,16.5,26.1,34.5c3.8,5,8,10.5,12.5,16.4
		c4.9,6.5,10.2,13.4,15.8,20.9c21.1,28,47.3,62.7,76.9,101.9c21.4,28,54.3,62,101.9,87.3c9.6,5.1,19.5,9.7,29.6,13.8
		c6.1,2,11.5,6,15.1,11.4c1.4,2.1,2.5,4.4,3.4,6.8C398.2,343.7,398.5,345.5,398.7,346.9z"/>
</g>
</svg>
