<?xml version="1.0" encoding="utf-8"?>
<!-- Generator: Adobe Illustrator 26.0.1, SVG Export Plug-In . SVG Version: 6.00 Build 0)  -->
<svg version="1.1" id="Layer_1" xmlns="http://www.w3.org/2000/svg" xmlns:xlink="http://www.w3.org/1999/xlink" x="0px" y="0px"
	 viewBox="0 0 400 400" style="enable-background:new 0 0 400 400;" xml:space="preserve">
<style type="text/css">
	.st0{fill:#FFFFFF;stroke:#E0E0E0;stroke-miterlimit:10;}
	.st1{fill:#E1241A;stroke:#E0E0E0;stroke-miterlimit:10;}
	.st2{fill:#3D7357;}
	.st3{fill:#3D7357;stroke:#E0E0E0;stroke-miterlimit:10;}
	.st4{fill-rule:evenodd;clip-rule:evenodd;fill:#3D7357;}
	.st5{fill-rule:evenodd;clip-rule:evenodd;fill:#E1241A;}
	.st6{fill:none;stroke:#E0E0E0;stroke-miterlimit:10;}
	.st7{fill:none;stroke:#333333;stroke-width:3;stroke-miterlimit:10;}
</style>
<path class="st0" d="M400,348.1c-92.4-0.2-184.7,0.1-277.1,0l0,0c-19.5,0-39,0-58.5,0c-4.1-20.5-8.2-41.1-12.3-61.7l0,0
	c-0.2-0.9-0.4-1.8-0.6-2.7l0,0c-3.1-15.5-6.2-31-9.3-46.5c-2.5-12.2-4.9-24.5-7.3-36.7C24,146.5,13.2,92.4,2.4,38.4
	c-0.1-0.3-0.9-2.4,0.2-4.6c1-2,3-2.6,3.3-2.8h78.6c3.7,0.2,10.6,1.1,18,5.2c8,4.4,12.6,10.5,14.1,12.6c3.4,4.5,12.5,16.6,26.2,34.6
	c3.8,5,8,10.5,12.5,16.5c4.9,6.5,10.2,13.5,15.9,21c21.2,28.1,47.5,62.9,77.2,102.3c21.5,28.1,54.5,62.2,102.3,87.6
	c10.1,5.4,20.1,9.9,29.7,13.8c2.6,0.9,10,3.7,15.2,11.4c1.6,2.4,2.7,4.8,3.4,6.8C399.5,344.9,399.8,346.7,400,348.1z"/>
<g>
	<path class="st1" d="M142.8,83.5c-14,8.1-29.8,18.9-45.6,33.2c-31.3,28.4-50.6,59.4-62.4,83.8C24,146.5,13.2,92.4,2.4,38.4
		c-0.1-0.3-0.9-2.4,0.2-4.6c1-2,3-2.6,3.3-2.8h78.6c3.7,0.2,10.6,1.1,18,5.2c8,4.4,12.6,10.5,14.1,12.6
		C120,53.4,129.2,65.4,142.8,83.5z"/>
	<path class="st2" d="M64.4,348.1C61.6,334,58.8,320,56,305.9c2.3,6.3,8.8,21,24.2,31.8c8.3,5.8,16.4,8.6,22.1,10
		C89.6,347.9,77,348,64.4,348.1z"/>
	<path class="st3" d="M51.5,283.7c6-26,21.5-75.7,64.3-119.9c19.3-19.9,39.1-33.5,55.4-42.8c-5.7-7.5-11-14.5-15.9-21
		c-17.4,9.9-40.4,25.6-63.1,49.5c-27.4,29-43.1,58.3-51.9,78.5C44,246.6,47.8,265.2,51.5,283.7z"/>
</g>
<g>
	<path class="st4" d="M211.8,303.3c-0.6-0.6-1.5-1.1-2.8-1.2l-4.2-0.4l-3.3,0.4l-2.6,0.7l-1.9,1.5c-0.6,0.6-1.1,1.3-1.4,2.2l5.8,0.7
		c0.2-0.6,0.9-1.1,1.1-1.3c0.7-0.4,1.6-0.5,2.6-0.5c0.6,0,1.2,0,1.5,0.5c0.4,0.2,0.4,0.7,0,1.5l-2.2,0.6l-4.8,0.9
		c-1.9,0.4-3.5,0.9-4.4,1.8c-0.9,0.7-1.1,1.6-1.5,2.8c-0.4,1.3,0,2.1,0.9,3c0.9,0.8,2.2,1.3,4.3,1.3c1.6,0,2.8-0.2,3.6-0.6
		c0.9-0.4,1.9-0.8,2.8-1.6v1.1l0.4,0.8h6l-0.4-1.5c0-0.4,0-1.1,0.4-1.8l1.1-6.8v-2.2C212.5,304.4,212.1,303.9,211.8,303.3z
		 M206.2,311.2c-0.4,0.8-0.4,1.4-0.7,1.9c-0.2,0.4-0.9,0.7-1.5,1.1s-1.3,0.5-2.2,0.5c-0.6,0-0.9-0.1-1.1-0.4
		c-0.4-0.4-0.7-0.7-0.4-1.3l0.6-1.1c0.4-0.4,1.3-0.6,2.6-0.9l2.7-0.6L206.2,311.2L206.2,311.2z M191.4,303.3
		c-0.9-1.1-2.2-1.5-3.6-1.5c-1.3,0-2.2,0.2-3.2,0.6c-0.9,0.4-1.9,1.1-3.2,2c-0.2-0.8-0.6-1.5-1.5-1.9c-0.6-0.6-1.5-0.7-2.8-0.7
		s-2.2,0.2-3.2,0.6c-0.9,0.4-2.1,1.1-2.9,2l0.6-2.2h-6l-2.9,15.3h6.1l1.5-7.8c0.4-1.2,0.7-2,1.3-2.5c0.6-0.6,1.3-0.8,1.9-0.8
		l1.3,0.4c0.2,0.2,0.2,0.6,0.2,0.9c0.4,0.2,0.4,0.7,0,1.4l-1.5,8.4h6.1l1.6-7.8c0.2-1.1,0.6-1.9,0.9-2.5c0.6-0.6,1.1-0.8,1.9-0.8
		c0.9,0,1.1,0.2,1.5,0.8c0.4,0.4,0.4,0.8,0,1.5l-1.5,8.8h6.1l1.9-9.5C192.4,305.8,192.4,304.3,191.4,303.3z M232.7,303.2
		c-0.9-1.1-2.2-1.5-3.7-1.5c-1.3,0-2.6,0.2-3.5,0.7c-0.9,0.4-2,1.2-2.9,2.2l0.6-2.6h-5.8l-2.8,15.3h6.4v0.2l1.1-7.4
		c0.4-1.4,0.7-2.3,1.3-3c0.6-0.6,1.3-0.8,2.2-0.8c0.6,0,0.9,0.2,1.1,0.6c0.4,0.5,0.7,1.2,0.4,2.1l-1.5,8.4h6.1l1.9-9.7
		C233.6,305.7,233.6,304.1,232.7,303.2z M151.5,301.6c0.4-1.5-0.4-2.7-1.3-3.7c-0.9-1.1-2.5-1.5-4.7-1.5l-12.8-0.1l-3.9,21.1h11.9
		l2.9-0.2c1.3-0.1,2.2-0.4,2.8-0.7c0.9-0.6,1.9-1.3,2.6-2.1c0.9-0.9,1.2-1.9,1.5-3c0.4-1.3,0-2.5-0.6-3.3c-0.7-0.9-1.6-1.5-3.2-1.9
		c0.9-0.4,1.9-0.9,2.8-1.4C150.6,304,151.1,302.9,151.5,301.6z M143.8,310.9c-0.2,0.7-0.6,1.2-0.9,1.5c-0.6,0.5-1.5,0.7-2.8,0.7
		h-3.3l0.5-4.4h3.7c1.3,0,2.2,0.4,2.6,0.7C143.8,309.7,144.1,310.3,143.8,310.9z M144.5,302.6c0,0.6-0.4,1.2-0.9,1.5
		c-0.4,0.4-1.3,0.6-2.2,0.6h-3.2l0.7-4.1h3c0.9,0,1.9,0.2,2.2,0.6C144.5,301.5,144.7,302.1,144.5,302.6z M156.6,296.4l-0.6,4.1h6.1
		l0.7-4.1H156.6z M155.7,302.2l-2.9,15.3h6.1l3.2-15.3H155.7z"/>
	<path class="st5" d="M191.6,224.3c-2.5-5.7-5.6-10.9-9.9-15.1c-4.6-4.6-9.6-7.8-15.3-10.4c-6-2.5-11.8-3.7-18.2-3.7
		s-12.5,1.3-18.5,3.7c-5.5,2.5-10.7,5.8-15.1,10.4c-4.6,4.3-7.7,9.5-10,15.1c-2.3,5.8-3.6,12.1-3.6,18.6c0,6.3,1.2,12.5,3.6,18.5
		c2.5,5.7,5.5,10.6,10,15.1c4.3,4.6,9.6,7.8,15.1,10.2c6.1,2.5,12.3,3.6,18.5,3.6s12.3-1.2,18.2-3.6c5.7-2.3,10.7-5.6,15.3-10.2
		c4.3-4.4,7.5-9.3,9.9-15.1c2.3-6.1,3.6-12,3.6-18.5C195.2,236.3,194,230.2,191.6,224.3z M169.7,252.5c-2.8,1.5-4.8,1.8-6.4,0.4
		c-2-1.4-2.9-2.3-2.9-2.1c-1.4-2.1-3.6-2.2-6.2-0.9L140,260.3h-25.1l23.9-18.1l-35,0.2l4.8-4.6H153c2.3-0.4,4.2,0.9,6.2,3.5l4.8,4.6
		c1.2,1.3,3.4,1.3,5.3,0l10.9-7.2l-2.9-2.6h15.3L169.7,252.5z"/>
</g>
<path class="st6" d="M400,348.1c-92.4-0.2-184.7,0.1-277.1,0l0,0c-19.5,0-39,0-58.5,0c-4.1-20.5-8.2-41.1-12.3-61.7l0,0
	c-0.2-0.9-0.4-1.8-0.6-2.7l0,0c-3.1-15.5-6.2-31-9.3-46.5c-2.5-12.2-4.9-24.5-7.3-36.7C24,146.5,13.2,92.4,2.4,38.4
	c-0.1-0.3-0.9-2.4,0.2-4.6c1-2,3-2.6,3.3-2.8h78.6c3.7,0.2,10.6,1.1,18,5.2c8,4.4,12.6,10.5,14.1,12.6c3.4,4.5,12.5,16.6,26.2,34.6
	c3.8,5,8,10.5,12.5,16.5c4.9,6.5,10.2,13.5,15.9,21c21.2,28.1,47.5,62.9,77.2,102.3c21.5,28.1,54.5,62.2,102.3,87.6
	c10.1,5.4,20.1,9.9,29.7,13.8c2.6,0.9,10,3.7,15.2,11.4c1.6,2.4,2.7,4.8,3.4,6.8C399.5,344.9,399.8,346.7,400,348.1z"/>
<path class="st7" d="M398.7,346.9c-92.1-0.2-184,0.1-276.1,0H64.3c-4.1-20.4-8.2-40.9-12.3-61.5l0,0l-0.6-2.7l0,0l-9.3-46.4
	c-2.5-12.2-4.9-24.4-7.3-36.6C24.1,146,13.3,92.2,2.5,38.4c-0.6-1.5-0.5-3.1,0.2-4.6C3.5,32.5,4.6,31.5,6,31h78.3
	c6.3,0.4,12.4,2.1,17.9,5.2c5.5,3.1,10.3,7.4,14,12.5c3.4,4.5,12.5,16.5,26.1,34.5c3.8,5,8,10.5,12.5,16.4
	c4.9,6.5,10.2,13.4,15.8,20.9c21.1,28,47.3,62.7,76.9,101.9c21.4,28,54.3,62,101.9,87.3c9.6,5.1,19.5,9.7,29.6,13.8
	c6.1,2,11.5,6,15.1,11.4c1.4,2.1,2.5,4.4,3.4,6.8C398.2,343.7,398.5,345.5,398.7,346.9z"/>
</svg>
