<?xml version="1.0" encoding="utf-8"?>
<!-- Generator: Adobe Illustrator 26.0.1, SVG Export Plug-In . SVG Version: 6.00 Build 0)  -->
<svg version="1.1" id="Layer_1" xmlns="http://www.w3.org/2000/svg" xmlns:xlink="http://www.w3.org/1999/xlink" x="0px" y="0px"
	 viewBox="0 0 400 400" style="enable-background:new 0 0 400 400;" xml:space="preserve">
<style type="text/css">
	.st0{fill:#0E41A0;stroke:#E0E0E0;stroke-miterlimit:10;}
	.st1{fill:#FFFFFF;}
	.st2{fill:#00AA43;}
	.st3{fill:#EA1417;}
	.st4{fill:#00A6DA;}
	.st5{fill:none;stroke:#333333;stroke-width:3;stroke-miterlimit:10;}
</style>
<path class="st0" d="M399,348.1c-59.4-0.1-118.8,0-178.2,0H63.5c-4.1-20.5-8.2-41.1-12.3-61.7l0,0l-0.6-2.7l0,0l-9.3-46.5
	c-0.9-4.6-1.8-9.2-2.8-13.8c-1.5-7.6-3-15.3-4.6-22.9c-0.1-0.6-0.2-1.3-0.4-1.9c-0.6-2.8-1.1-5.6-1.7-8.4c-0.5-2.6-1-5.3-1.6-7.9
	c-0.3-1.7-0.7-3.5-1-5.2l-1.5-7.8v-0.1c-0.6-2.9-1.2-5.8-1.7-8.7C17.7,119.8,9.5,79.1,1.4,38.4c-0.5-1.5-0.5-3.2,0.2-4.6
	c0.7-1.3,1.9-2.3,3.3-2.8h78.6c6.3,0.4,12.5,2.1,18,5.2c5.6,3.1,10.4,7.4,14.1,12.6c3.4,4.5,12.5,16.6,26.2,34.6
	c3.8,5,8,10.5,12.5,16.5c4.9,6.5,10.2,13.5,15.9,21c21.2,28.1,47.5,62.9,77.2,102.3c21.5,28.1,54.5,62.2,102.3,87.6
	c9.7,5.1,19.6,9.7,29.7,13.8c6.2,2.1,11.5,6.1,15.2,11.4c1.4,2.1,2.6,4.4,3.4,6.8C398.5,344.9,398.8,346.7,399,348.1z"/>
<path class="st1" d="M355.5,326.3l-10.3,0.6l-4.9-11.3l-2.3,11.3l-9,0.3l7.7,5.6l-2.6,9.7l9-6.6l9,5l-4.2-8.8L355.5,326.3z"/>
<path class="st1" d="M305.8,306.3l-10.3,0.6l-4.9-11.3l-2.3,11.3l-9,0.3l7.7,5.6l-2.6,9.7l9-6.6l9,5l-4.2-8.8L305.8,306.3z"/>
<path class="st1" d="M261.1,326.3l-10.3,0.6l-4.9-11.3l-2.3,11.3l-9,0.3l7.7,5.6l-2.6,9.7l9-6.6l9,5l-4.2-8.8L261.1,326.3z"/>
<path class="st1" d="M150.8,133.1l-10.3,0.6l-4.9-11.3l-2.3,11.3l-9,0.3l7.7,5.6l-2.6,9.7l9-6.6l9,5l-4.2-8.8L150.8,133.1z"/>
<path class="st1" d="M104.3,89.3L94,89.9l-4.9-11.3l-2.3,11.3l-9,0.3l7.7,5.6l-2.6,9.7l9-6.6l9,5l-4.2-8.8L104.3,89.3z"/>
<path class="st1" d="M64.8,51.8l-10.3,0.6l-4.9-11.3l-2.3,11.3l-9,0.3l7.7,5.6L43.4,68l9-6.6l9,5l-4.2-8.8L64.8,51.8z"/>
<path class="st1" d="M54.8,89.3l-10.3,0.6l-4.9-11.3l-2.3,11.3l-9,0.3l7.7,5.6l-2.6,9.7l9-6.6l9,5l-4.2-8.8L54.8,89.3z"/>
<path class="st1" d="M54.8,125l-10.3,0.6l-4.9-11.3l-2.3,11.3l-9,0.3l7.7,5.6l-2.6,9.7l9-6.6l9,5l-4.2-8.8L54.8,125z"/>
<path class="st1" d="M102.8,125l-10.3,0.6l-4.9-11.3l-2.3,11.3l-9,0.3l7.7,5.6l-2.6,9.7l9-6.6l9,5l-4.2-8.8L102.8,125z"/>
<path class="st1" d="M68.7,154.5c-14.5,0-29,2-42.9,6c0.6,2.9,1.2,5.8,1.7,8.7v0.1c13.4-3.8,27.2-5.8,41.1-5.8
	c81.5,0,147.5,66,147.5,147.5l0,0c0,12.5-1.6,25-4.7,37.1h9.2c2.9-12.1,4.4-24.6,4.4-37.1C225.2,224.6,155.2,154.5,68.7,154.5z"/>
<path class="st2" d="M186.5,311.1c0,12.6-2,25.1-6,37.1H63.4c-4.1-20.5-8.2-41.1-12.3-61.7l0,0l-0.6-2.7l0,0l-9.3-46.5
	c-0.9-4.6-1.8-9.2-2.8-13.8c-1.5-7.6-3-15.3-4.6-22.9c-0.1-0.6-0.2-1.3-0.4-1.9c62.1-19.5,128.2,15.1,147.7,77.2
	C184.7,287.2,186.5,299.1,186.5,311.1z"/>
<path class="st3" d="M161.5,311.1c0,12.8-2.6,25.4-7.7,37.1H63.5c-4.1-20.5-8.2-41.1-12.3-61.7l0,0l-0.6-2.7l0,0l-9.3-46.5
	c-0.9-4.6-1.8-9.2-2.8-13.8c48.4-16.7,101.2,8.9,117.9,57.3C159.8,290.5,161.5,300.7,161.5,311.1L161.5,311.1z"/>
<path class="st4" d="M68.7,176.7c-13,0-26,1.9-38.5,5.6c0.5,2.6,1,5.3,1.6,7.9c66.7-20.5,137.4,17,157.8,83.7
	c7.4,24.2,7.4,50.1,0,74.3h8.3c3.5-12.1,5.2-24.6,5.2-37.1C203.1,237,142.8,176.7,68.7,176.7z"/>
<path class="st4" d="M68.7,163.4c-13.9,0-27.8,1.9-41.2,5.8v0.1l1.5,7.8c12.9-3.8,26.2-5.7,39.6-5.7c77,0,139.7,62.7,139.7,139.7
	c0,12.5-1.7,25-5,37.1h8.3c3.1-12.1,4.7-24.6,4.7-37.1C216.4,229.6,150.2,163.4,68.7,163.4z"/>
<path class="st5" d="M398.7,346.9c-92.1-0.2-184,0.1-276.1,0H64.3c-4.1-20.4-8.2-40.9-12.3-61.5l0,0l-0.6-2.7l0,0l-9.3-46.4
	c-2.5-12.2-4.9-24.4-7.3-36.6C24.1,146,13.3,92.2,2.5,38.4c-0.6-1.5-0.5-3.1,0.2-4.6C3.5,32.5,4.6,31.5,6,31h78.3
	c6.3,0.4,12.4,2.1,17.9,5.2c5.5,3.1,10.3,7.4,14,12.5c3.4,4.5,12.5,16.5,26.1,34.5c3.8,5,8,10.5,12.5,16.4
	c4.9,6.5,10.2,13.4,15.8,20.9c21.1,28,47.3,62.7,76.9,101.9c21.4,28,54.3,62,101.9,87.3c9.6,5.1,19.5,9.7,29.6,13.8
	c6.1,2,11.5,6,15.1,11.4c1.4,2.1,2.5,4.4,3.4,6.8C398.2,343.7,398.5,345.5,398.7,346.9z"/>
</svg>
