<?xml version="1.0" encoding="utf-8"?>
<!-- Generator: Adobe Illustrator 26.0.1, SVG Export Plug-In . SVG Version: 6.00 Build 0)  -->
<svg version="1.1" id="Layer_1" xmlns="http://www.w3.org/2000/svg" xmlns:xlink="http://www.w3.org/1999/xlink" x="0px" y="0px"
	 viewBox="0 0 400 400" style="enable-background:new 0 0 400 400;" xml:space="preserve">
<style type="text/css">
	.st0{fill:#02437B;}
	.st1{fill:url(#SVGID_1_);}
	.st2{fill:url(#SVGID_00000123403339895622549650000008721374052412702344_);}
	.st3{fill:url(#SVGID_00000183937481089629934430000002797081217074699179_);}
	.st4{fill:url(#SVGID_00000108284968940216970830000017235026306934194362_);}
	.st5{fill:#F01148;}
	.st6{fill:none;stroke:#E0E0E0;stroke-width:0.9963;stroke-miterlimit:10;}
	.st7{fill:none;stroke:#333333;stroke-width:3;stroke-miterlimit:10;}
</style>
<path class="st0" d="M399.3,347.5c-92.1-0.2-184,0.1-276.1,0l0,0c-19.4,0-38.9,0-58.3,0c-4.1-20.4-8.2-40.9-12.3-61.5l0,0
	c-0.2-0.9-0.4-1.8-0.6-2.7l0,0c-3.1-15.4-6.2-30.9-9.3-46.3c-2.5-12.2-4.9-24.4-7.3-36.6C24.6,146.7,13.9,92.8,3.1,39
	c-0.1-0.3-0.9-2.4,0.2-4.6c1-2,3-2.6,3.3-2.8h78.3c3.7,0.2,10.6,1.1,17.9,5.2c8,4.4,12.6,10.5,14,12.6c3.4,4.5,12.5,16.5,26.1,34.5
	c3.8,5,8,10.5,12.5,16.4c4.9,6.5,10.2,13.5,15.8,20.9c21.1,28,47.3,62.7,76.9,101.9c21.4,28,54.3,62,101.9,87.3
	c10.1,5.4,20,9.9,29.6,13.7c2.6,0.9,10,3.7,15.1,11.4c1.6,2.4,2.7,4.8,3.4,6.8C398.8,344.3,399.1,346.1,399.3,347.5z"/>
<g>
	
		<linearGradient id="SVGID_1_" gradientUnits="userSpaceOnUse" x1="-807.0788" y1="435.0475" x2="-568.9788" y2="435.0475" gradientTransform="matrix(-1 0 0 1 -480.2788 -193)">
		<stop  offset="0" style="stop-color:#53E2F3"/>
		<stop  offset="1" style="stop-color:#02437B"/>
	</linearGradient>
	<path class="st1" d="M102.9,147.4l-14.2,18.1l13.2,40l64.8,38.1l70.6,22.9l53.8,39.2l35.7,31c0,0-36.6-46.9-66.3-86.4
		c-29.4-39.3-69.2-67.2-72.4-69.4c-3.1-2.2-31.3-18.5-56.9-25.2C105.6,148.7,103,147.3,102.9,147.4L102.9,147.4z"/>
	
		<linearGradient id="SVGID_00000047027466041068046310000002369421817449057160_" gradientUnits="userSpaceOnUse" x1="-629.2788" y1="329.95" x2="-483.0788" y2="329.95" gradientTransform="matrix(-1 0 0 1 -480.2788 -193)">
		<stop  offset="0" style="stop-color:#FAD900"/>
		<stop  offset="1" style="stop-color:#E67622"/>
	</linearGradient>
	<path style="fill:url(#SVGID_00000047027466041068046310000002369421817449057160_);" d="M2.8,36.6l29.7,145.9L45.9,218l74.2,19.3
		l28.9-6.8c-12.8-3.1-21.8-13.1-29.9-21.2c-8.3-9.1-12.5-18.6-14.6-31.1c-1.6-9.6-0.5-29.2-3.1-46.6c-2.6-17.2-7.7-29.6-15.1-42.2
		C79,76.8,68,65.8,49.3,53.9C30.5,42,2.8,36.6,2.8,36.6L2.8,36.6z"/>
	
		<linearGradient id="SVGID_00000142860592629688566540000004146086955976692628_" gradientUnits="userSpaceOnUse" x1="-817.4788" y1="457.45" x2="-512.4788" y2="457.45" gradientTransform="matrix(-1 0 0 1 -480.2788 -193)">
		<stop  offset="0" style="stop-color:#FAD900"/>
		<stop  offset="1" style="stop-color:#EE2461"/>
	</linearGradient>
	<path style="fill:url(#SVGID_00000142860592629688566540000004146086955976692628_);" d="M48.1,261.1L58.4,280l94.1,12l60.3-3.5
		l79.8,30.1l44.6,28.8c0,0-36.4-38.5-50.1-50.9c-13.7-12.5-39.4-32.2-59.6-45c-20.2-12.9-48.2-19.9-62.2-21.3
		c-17.3-0.7-38.1,0.5-49.7-0.9c-17-2-25.7-6.2-29.9-8c-43.1-18.9-53.5-39.8-53.5-39.8L48.1,261.1z"/>
	
		<linearGradient id="SVGID_00000117659796274149191950000016431438656140608659_" gradientUnits="userSpaceOnUse" x1="-817.4788" y1="496.9" x2="-528.0789" y2="496.9" gradientTransform="matrix(-1 0 0 1 -480.2788 -193)">
		<stop  offset="0" style="stop-color:#02437B"/>
		<stop  offset="1" style="stop-color:#53E2F3"/>
	</linearGradient>
	<path style="fill:url(#SVGID_00000117659796274149191950000016431438656140608659_);" d="M93.6,279c16.3,3.9,26.7,3.7,34.4,4
		c7.7,0.2,55.6-4,61.2-4.3c5.6-0.3,26.8-1.5,45.9,3.3c19.1,4.7,38.5,14.9,52.4,25.4c14,10.5,49.7,40,49.7,40l-28.3-11.2l-94.2-14.1
		l-146,8.6l-8.8-10.6l-12.1-59.7C59,267.7,68.8,273.3,93.6,279z"/>
	<path class="st5" d="M337.3,347.3c-23.3-15.3-63.6-31-83.3-37.5c-19.7-6.4-49.5-7.7-61.6-6.3c-12.2,1.4-29.6,6.8-45.5,11.5
		c-16,4.6-39.8,6.6-61.1,8.2c-21.5,1.6-25.7-3.2-25.7-3.2l5.4,27L337.3,347.3z"/>
</g>
<path class="st6" d="M399.3,347.5c-92.1-0.2-184,0.1-276.1,0l0,0c-19.4,0-38.9,0-58.3,0c-4.1-20.4-8.2-40.9-12.3-61.5l0,0
	c-0.2-0.9-0.4-1.8-0.6-2.7l0,0c-3.1-15.4-6.2-30.9-9.3-46.3c-2.5-12.2-4.9-24.4-7.3-36.6C24.6,146.7,13.9,92.8,3.1,39
	c-0.1-0.3-0.9-2.4,0.2-4.6c1-2,3-2.6,3.3-2.8h78.3c3.7,0.2,10.6,1.1,17.9,5.2c8,4.4,12.6,10.5,14,12.6c3.4,4.5,12.5,16.5,26.1,34.5
	c3.8,5,8,10.5,12.5,16.4c4.9,6.5,10.2,13.5,15.8,20.9c21.1,28,47.3,62.7,76.9,101.9c21.4,28,54.3,62,101.9,87.3
	c10.1,5.4,20,9.9,29.6,13.7c2.6,0.9,10,3.7,15.1,11.4c1.6,2.4,2.7,4.8,3.4,6.8C398.8,344.3,399.1,346.1,399.3,347.5z"/>
<path class="st7" d="M398.7,346.9c-92.1-0.2-184,0.1-276.1,0H64.3c-4.1-20.4-8.2-40.9-12.3-61.5l0,0l-0.6-2.7l0,0l-9.3-46.4
	c-2.5-12.2-4.9-24.4-7.3-36.6C24.1,146,13.3,92.2,2.5,38.4c-0.6-1.5-0.5-3.1,0.2-4.6C3.5,32.5,4.6,31.5,6,31h78.3
	c6.3,0.4,12.4,2.1,17.9,5.2c5.5,3.1,10.3,7.4,14,12.5c3.4,4.5,12.5,16.5,26.1,34.5c3.8,5,8,10.5,12.5,16.4
	c4.9,6.5,10.2,13.4,15.8,20.9c21.1,28,47.3,62.7,76.9,101.9c21.4,28,54.3,62,101.9,87.3c9.6,5.1,19.5,9.7,29.6,13.8
	c6.1,2,11.5,6,15.1,11.4c1.4,2.1,2.5,4.4,3.4,6.8C398.2,343.7,398.5,345.5,398.7,346.9z"/>
</svg>
